<?xml version="1.0" standalone="no"?>
<!DOCTYPE svg PUBLIC "-//W3C//DTD SVG 20010904//EN"
 "http://www.w3.org/TR/2001/REC-SVG-20010904/DTD/svg10.dtd">
<svg version="1.0" xmlns="http://www.w3.org/2000/svg"
 width="576.000000pt" height="512.000000pt" viewBox="0 0 576.000000 512.000000"
 preserveAspectRatio="xMidYMid meet">

<g transform="translate(0.000000,512.000000) scale(0.100000,-0.100000)"
fill="#000000" stroke="none">
<path d="M1180 4789 c-306 -27 -695 -115 -967 -219 -93 -36 -148 -82 -185
-158 l-23 -47 -3 -1895 c-1 -1042 0 -1910 3 -1928 7 -40 59 -101 102 -118 54
-23 111 -16 268 31 369 111 791 185 1053 185 238 0 616 -79 996 -209 142 -49
211 -38 270 42 l21 28 3 1930 c2 1653 0 1934 -12 1963 -37 90 -361 254 -639
325 -280 72 -587 96 -887 70z"/>
<path d="M4090 4790 c-193 -20 -389 -62 -550 -117 -220 -76 -448 -204 -483
-273 -16 -33 -17 -143 -15 -1967 l3 -1932 21 -28 c35 -47 82 -73 132 -73 27 0
112 22 215 56 336 109 623 170 847 181 276 13 710 -57 1125 -182 157 -47 227
-55 273 -31 36 19 78 65 91 99 15 40 15 3786 0 3842 -13 48 -61 121 -101 154
-92 75 -591 211 -938 256 -146 19 -498 28 -620 15z"/>
</g>
</svg>
