<?xml version="1.0" standalone="no"?>
<!DOCTYPE svg PUBLIC "-//W3C//DTD SVG 20010904//EN"
 "http://www.w3.org/TR/2001/REC-SVG-20010904/DTD/svg10.dtd">
<svg version="1.0" xmlns="http://www.w3.org/2000/svg"
 width="563.000000pt" height="557.000000pt" viewBox="0 0 563.000000 557.000000"
 preserveAspectRatio="xMidYMid meet">

<g transform="translate(0.000000,557.000000) scale(0.100000,-0.100000)"
fill="#000000" stroke="none">
<path d="M1230 5270 l0 -300 630 0 630 0 0 -300 0 -300 315 0 315 0 0 294 0
294 -22 6 c-13 3 -155 6 -315 6 l-293 0 0 300 0 300 -630 0 -630 0 0 -300z"/>
<path d="M3134 5298 c2 -150 5 -283 5 -295 l1 -23 620 0 620 0 0 295 0 295
-626 0 -625 0 5 -272z"/>
<path d="M611 4665 l2 -295 299 0 298 0 0 295 0 295 -301 0 -300 0 2 -295z"/>
<path d="M4400 4665 l0 -295 305 0 305 0 0 295 0 295 -305 0 -305 0 0 -295z"/>
<path d="M0 3415 l0 -925 290 0 290 0 0 925 0 925 -290 0 -290 0 0 -925z"/>
<path d="M5020 3415 l0 -925 -310 0 -310 0 0 -310 0 -310 310 0 310 0 0 311 0
312 185 -7 c102 -4 240 -4 305 0 l120 7 0 923 0 924 -305 0 -305 0 0 -925z"/>
<path d="M611 2180 l-2 -310 294 0 294 0 6 137 c4 75 7 214 7 310 l0 173 -299
0 -298 0 -2 -310z"/>
<path d="M1250 1555 l0 -315 285 0 285 0 0 315 0 315 -285 0 -285 0 0 -315z"/>
<path d="M3760 1555 l0 -305 305 0 305 0 0 305 0 305 -305 0 -305 0 0 -305z"/>
<path d="M1850 930 l0 -310 295 0 295 0 0 310 0 310 -295 0 -295 0 0 -310z"/>
<path d="M3150 930 l0 -310 305 0 305 0 0 310 0 310 -305 0 -305 0 0 -310z"/>
<path d="M2470 305 l0 -305 335 0 335 0 0 305 0 305 -335 0 -335 0 0 -305z"/>
</g>
</svg>
