<?xml version="1.0" standalone="no"?>
<!DOCTYPE svg PUBLIC "-//W3C//DTD SVG 20010904//EN"
 "http://www.w3.org/TR/2001/REC-SVG-20010904/DTD/svg10.dtd">
<svg version="1.0" xmlns="http://www.w3.org/2000/svg"
 width="60.000000pt" height="61.000000pt" viewBox="0 0 60.000000 61.000000"
 preserveAspectRatio="xMidYMid meet">

<g transform="translate(0.000000,61.000000) scale(0.100000,-0.100000)"
fill="#000000" stroke="none">
<path d="M97 524 c-4 -4 9 -24 29 -45 l35 -36 -55 -56 c-31 -31 -56 -65 -56
-75 0 -31 89 -122 145 -148 56 -27 133 -31 197 -12 38 11 40 10 76 -25 35 -35
62 -47 62 -29 0 14 -426 433 -433 426z m123 -144 c0 -4 -5 -21 -11 -38 -14
-41 3 -94 38 -122 28 -22 82 -26 115 -9 16 9 24 7 37 -5 21 -22 5 -32 -60 -41
-79 -11 -151 16 -216 81 l-54 54 18 31 c10 17 33 44 52 59 32 27 35 28 57 13
13 -8 24 -19 24 -23z m90 -85 c45 -46 52 -57 40 -65 -21 -14 -47 -12 -79 5
-32 16 -41 33 -41 74 0 27 7 41 20 41 3 0 30 -25 60 -55z"/>
<path d="M252 473 c-41 -8 -12 -23 45 -23 80 0 128 -18 183 -67 65 -59 69 -74
30 -124 -18 -22 -30 -43 -26 -46 8 -9 42 24 67 64 l21 33 -30 41 c-71 96 -182
143 -290 122z"/>
<path d="M292 408 c3 -7 20 -16 38 -19 38 -8 58 -30 67 -72 8 -40 23 -44 23
-5 0 40 -21 73 -60 93 -35 18 -73 20 -68 3z"/>
</g>
</svg>
