<?xml version="1.0" standalone="no"?>
<!DOCTYPE svg PUBLIC "-//W3C//DTD SVG 20010904//EN"
 "http://www.w3.org/TR/2001/REC-SVG-20010904/DTD/svg10.dtd">
<svg version="1.0" xmlns="http://www.w3.org/2000/svg"
 width="60.000000pt" height="61.000000pt" viewBox="0 0 60.000000 61.000000"
 preserveAspectRatio="xMidYMid meet">

<g transform="translate(0.000000,61.000000) scale(0.100000,-0.100000)"
fill="#000000" stroke="none">
<path d="M213 461 c-91 -31 -181 -118 -170 -163 9 -36 85 -108 141 -134 57
-27 140 -32 197 -12 52 17 117 65 149 110 27 37 28 42 15 68 -25 48 -113 119
-168 135 -65 19 -100 19 -164 -4z m192 -35 c46 -21 125 -94 125 -115 0 -23
-62 -89 -106 -113 -111 -60 -217 -44 -311 47 l-56 54 18 28 c72 114 210 155
330 99z"/>
<path d="M265 410 c-26 -10 -61 -49 -70 -78 -9 -32 12 -88 42 -112 42 -33 98
-27 139 14 24 24 34 43 34 65 0 47 -27 91 -65 107 -38 16 -51 16 -80 4z m95
-40 c44 -44 34 -108 -21 -139 -51 -29 -119 13 -119 73 0 51 33 86 81 86 25 0
46 -7 59 -20z"/>
</g>
</svg>
