<?xml version="1.0" standalone="no"?>
<!DOCTYPE svg PUBLIC "-//W3C//DTD SVG 20010904//EN"
 "http://www.w3.org/TR/2001/REC-SVG-20010904/DTD/svg10.dtd">
<svg version="1.0" xmlns="http://www.w3.org/2000/svg"
 width="563.000000pt" height="557.000000pt" viewBox="0 0 563.000000 557.000000"
 preserveAspectRatio="xMidYMid meet">

<g transform="translate(0.000000,557.000000) scale(0.100000,-0.100000)"
fill="#000000" stroke="none">
<path d="M1230 5265 l0 -305 -311 0 -311 0 2 -282 c1 -156 1 -295 1 -310 l-1
-28 -305 0 -305 0 0 -925 0 -925 305 0 305 0 1 -27 c0 -16 0 -155 -1 -310 l-2
-283 321 0 321 0 0 -315 0 -315 300 0 300 0 0 -310 0 -310 310 0 310 0 0 -310
0 -310 335 0 335 0 0 310 0 310 310 0 310 0 0 315 0 315 305 0 305 0 0 310 0
310 325 0 325 0 0 311 0 312 185 -7 c102 -4 240 -4 305 0 l120 7 0 923 0 924
-310 0 -310 0 0 310 0 310 -315 0 -315 0 0 305 0 305 -626 0 -625 0 5 -272 c2
-150 5 -284 5 -298 1 -13 -2 -27 -7 -30 -4 -3 -150 -4 -324 -2 l-318 3 0 300
0 299 -630 0 -630 0 0 -305z m640 -1225 l0 -330 -325 0 -325 0 0 330 0 330
325 0 325 0 0 -330z"/>
</g>
</svg>
